<svg width="300" height="68" viewBox="0 0 300 68" fill="none" xmlns="http://www.w3.org/2000/svg">
<path d="M0 35.619H35.6697V0L0 35.619Z" fill="white"/>
<path d="M43.7797 68H7.19959L41.2446 42.0952H77.8248L43.7797 68Z" fill="white"/>
<path d="M42.155 0H77.8247V35.619H42.155V0Z" fill="white"/>
<path d="M257.306 60.7905V3.30709H268.682V34.4439H268.956L285.129 19.7309H298.698L281.223 35.4704L300 60.7905H286.705L273.205 42.3821L268.682 46.0775V60.7905H257.306Z" fill="white"/>
<path d="M207.659 60.7917V30.9551H202.04V19.7322H213.553V26.4386H216.431C218.03 24.0662 220.04 22.2414 222.462 20.964C224.883 19.6409 227.898 18.9794 231.508 18.9794C237.219 18.9794 241.627 20.5534 244.734 23.7013C247.886 26.8035 249.463 30.9779 249.463 36.2244V60.7917H238.087V38.3458C238.087 35.3348 237.264 33.0537 235.62 31.5026C234.02 29.9058 231.668 29.1074 228.561 29.1074C225.454 29.1074 223.079 29.9058 221.434 31.5026C219.835 33.0537 219.035 35.3348 219.035 38.3458V60.7917H207.659Z" fill="white"/>
<path d="M184.939 60.7876V19.7281H196.315V60.7876H184.939ZM190.627 15.6905C188.89 15.6905 187.406 15.0975 186.172 13.9113C184.984 12.6795 184.39 11.1968 184.39 9.46317C184.39 7.72954 184.984 6.26965 186.172 5.08348C187.406 3.8517 188.89 3.23581 190.627 3.23581C192.363 3.23581 193.825 3.8517 195.012 5.08348C196.246 6.26965 196.863 7.72954 196.863 9.46317C196.863 11.1968 196.246 12.6795 195.012 13.9113C193.825 15.0975 192.363 15.6905 190.627 15.6905Z" fill="white"/>
<path d="M164.962 60.7905V3.30709H176.338V60.7905H164.962Z" fill="white"/>
<path d="M110.256 60.7884V5.35798H138.764C142.099 5.35798 145.023 5.95107 147.536 7.13723C150.049 8.3234 152.013 9.98859 153.429 12.1328C154.846 14.2314 155.554 16.6722 155.554 19.4551C155.554 22.238 154.823 24.6104 153.361 26.5721C151.899 28.4882 149.912 29.9253 147.399 30.8833V31.1571C149.546 31.7045 151.419 32.617 153.018 33.8944C154.663 35.1718 155.942 36.7457 156.856 38.6162C157.815 40.4867 158.295 42.6081 158.295 44.9805C158.295 48.1284 157.518 50.8885 155.965 53.2608C154.412 55.6331 152.264 57.4808 149.523 58.8039C146.828 60.1269 143.653 60.7884 139.998 60.7884H110.256ZM121.837 50.6604H137.942C140.729 50.6604 142.876 50.0673 144.384 48.8811C145.891 47.6493 146.645 45.8929 146.645 43.6118C146.645 41.3307 145.891 39.5971 144.384 38.4109C142.922 37.2248 140.797 36.6317 138.01 36.6317H121.837V50.6604ZM121.837 27.4617H137.119C139.312 27.4617 140.98 26.9599 142.122 25.9562C143.31 24.9069 143.904 23.4014 143.904 21.4396C143.904 19.4779 143.31 17.9952 142.122 16.9915C140.98 15.9878 139.312 15.486 137.119 15.486H121.837V27.4617Z" fill="white"/>
</svg>
