<svg width="294" height="64" viewBox="0 0 294 64" fill="none" xmlns="http://www.w3.org/2000/svg">
<path d="M73.4297 39.6221C74.2335 39.6221 74.565 40.6504 73.9121 41.1182L43.9258 62.6055C42.6599 63.5125 41.1405 64 39.582 64H10.6767C9.05864 64 8.40258 61.9214 9.7285 60.9961L39.2871 40.3682C39.9821 39.8831 40.81 39.6221 41.6582 39.6221H73.4297Z" fill="black"/>
<path d="M225.507 18.7432C231.217 18.7433 235.626 20.318 238.732 23.4658C241.885 26.568 243.461 30.742 243.461 35.9883V60.5557H232.085V38.1104C232.085 35.0993 231.263 32.8177 229.618 31.2666C228.019 29.6699 225.666 28.8721 222.56 28.8721C219.453 28.8721 217.077 29.6699 215.433 31.2666C213.834 32.8177 213.034 35.0993 213.034 38.1104V60.5557H201.658V30.7197H196.039V19.4961H207.552V26.2031H210.43C212.029 23.8308 214.04 22.0059 216.461 20.7285C218.882 19.4056 221.898 18.7432 225.507 18.7432Z" fill="black"/>
<path d="M170.336 60.5547H158.96V3.07129H170.336V60.5547Z" fill="black"/>
<path d="M262.681 34.208H262.955L279.128 19.4951H292.696L275.222 35.2344L293.999 60.5547H280.704L267.203 42.1465L262.681 45.8418V60.5547H251.305V3.07129H262.681V34.208Z" fill="black"/>
<path fill-rule="evenodd" clip-rule="evenodd" d="M132.763 5.12207C136.098 5.12207 139.021 5.71532 141.534 6.90137C144.047 8.08753 146.011 9.75325 147.428 11.8975C148.844 13.996 149.553 16.4369 149.553 19.2197C149.553 22.0024 148.821 24.3743 147.359 26.3359C145.897 28.252 143.91 29.6894 141.397 30.6475V30.9209C143.545 31.4683 145.418 32.381 147.017 33.6582C148.661 34.9356 149.941 36.5104 150.854 38.3809C151.814 40.2513 152.294 42.3729 152.294 44.7451C152.294 47.8928 151.517 50.6532 149.964 53.0254C148.411 55.3976 146.263 57.2454 143.521 58.5684C140.826 59.8912 137.651 60.5527 133.996 60.5527H104.254V5.12207H132.763ZM115.836 50.4248H131.94C134.727 50.4248 136.874 49.8315 138.382 48.6455C139.889 47.4137 140.644 45.6571 140.644 43.376C140.644 41.0949 139.889 39.361 138.382 38.1748C136.92 36.9889 134.795 36.3955 132.009 36.3955H115.836V50.4248ZM115.836 27.2256H131.118C133.311 27.2256 134.979 26.7244 136.121 25.7207C137.309 24.6715 137.902 23.1657 137.902 21.2041C137.902 19.2425 137.309 17.7595 136.121 16.7559C134.979 15.7522 133.311 15.25 131.118 15.25H115.836V27.2256Z" fill="black"/>
<path d="M190.313 60.5518H178.937V19.4922H190.313V60.5518Z" fill="black"/>
<path d="M71.0361 0C73.7774 0.000132874 75.9997 2.21719 76 4.95215V30.502C76 33.2371 73.7776 35.454 71.0361 35.4541H45.3193C42.5777 35.4541 40.3555 33.2372 40.3555 30.502V4.95312C40.3555 2.21786 42.5777 0 45.3193 0H71.0361Z" fill="black"/>
<path d="M34.4512 1.36133C35.022 0.839729 35.9424 1.24421 35.9424 2.0166V31.1055C35.9421 33.3847 34.0902 35.2324 31.8056 35.2324H1.65819C0.148967 35.2324 -0.572638 33.3815 0.540022 32.3643L34.4512 1.36133Z" fill="black"/>
<path d="M184.625 3C186.361 3.00001 187.823 3.61603 189.011 4.84766C190.244 6.03382 190.861 7.49392 190.861 9.22754C190.861 10.9611 190.244 12.444 189.011 13.6758C187.823 14.8617 186.361 15.4551 184.625 15.4551C182.889 15.455 181.404 14.8618 180.171 13.6758C178.983 12.444 178.389 10.9611 178.389 9.22754C178.389 7.49391 178.983 6.03382 180.171 4.84766C181.404 3.61598 182.889 3.00006 184.625 3Z" fill="black"/>
</svg>
